<?xml version="1.0" standalone="no"?>
<!DOCTYPE svg PUBLIC "-//W3C//DTD SVG 20010904//EN"
 "http://www.w3.org/TR/2001/REC-SVG-20010904/DTD/svg10.dtd">
<svg version="1.0" xmlns="http://www.w3.org/2000/svg"
 width="550.000000pt" height="550.000000pt" viewBox="0 0 550.000000 550.000000"
 preserveAspectRatio="xMidYMid meet">
<metadata>
Created by potrace 1.14, written by Peter Selinger 2001-2017
</metadata>
<g transform="translate(0.000000,550.000000) scale(0.100000,-0.100000)"
fill="#000000" stroke="none">
<path d="M1750 5471 c-337 -81 -545 -176 -790 -362 -249 -189 -391 -362 -542
-660 -115 -229 -132 -289 -154 -542 -28 -318 -5 -490 90 -692 44 -93 47 -104
41 -155 -4 -32 -14 -59 -23 -66 -15 -11 -15 -18 1 -90 12 -59 23 -85 42 -101
14 -13 25 -33 25 -47 0 -29 51 -150 89 -211 23 -37 25 -52 32 -230 4 -104 15
-329 24 -500 15 -307 19 -487 16 -763 -1 -104 3 -157 14 -195 11 -37 20 -152
31 -392 8 -187 17 -368 20 -402 l6 -63 2386 0 2387 0 -87 88 c-63 63 -101 113
-140 182 l-53 95 -90 34 c-50 18 -112 38 -138 45 -48 11 -48 11 -109 121 -34
60 -109 186 -167 279 -58 93 -112 179 -118 190 -29 48 -186 417 -228 534 -25
70 -70 192 -100 272 -79 209 -186 599 -255 930 -49 233 -74 381 -140 850 -73
515 -75 527 -141 714 -101 285 -232 497 -433 701 -50 51 -125 117 -166 147
-102 74 -289 180 -381 217 -171 67 -396 101 -664 100 -150 -1 -184 -4 -285
-28z m1729 -766 c116 -199 197 -393 240 -578 46 -194 44 -213 -8 -57 -26 80
-64 183 -83 230 -72 169 -120 286 -144 348 -13 34 -33 82 -45 105 -31 62 -7
33 40 -48z m-2595 38 c4 -21 23 -89 43 -152 34 -105 36 -115 22 -140 -8 -14
-24 -27 -36 -29 -18 -3 -25 9 -51 80 -31 86 -62 186 -62 199 0 11 60 79 70 79
4 0 11 -17 14 -37z m506 -150 c0 -4 -11 -43 -25 -87 -28 -95 -78 -317 -96
-431 -14 -88 -18 -416 -6 -482 l7 -42 -45 20 c-49 22 -205 39 -205 22 0 -6 22
-13 49 -16 27 -3 77 -18 111 -32 34 -14 69 -24 76 -21 10 4 14 -3 14 -23 0
-28 73 -287 84 -298 17 -17 16 15 -4 109 -12 56 -23 150 -25 208 -4 100 -4
102 5 37 18 -127 78 -305 153 -456 40 -79 78 -146 86 -149 15 -5 15 -4 -18 88
-11 31 -23 92 -26 135 l-6 80 18 -31 c10 -17 28 -44 41 -60 13 -16 43 -55 67
-88 48 -64 162 -186 174 -186 4 0 5 81 3 180 -6 248 27 639 59 700 14 25 19
56 19 107 0 42 4 73 10 73 6 0 10 -20 10 -45 0 -51 43 -181 88 -270 28 -54 30
-61 14 -67 -9 -3 -43 -16 -74 -28 -53 -20 -76 -40 -47 -40 8 0 7 -5 -1 -15
-22 -27 -6 -26 79 5 45 17 88 30 96 30 8 0 30 -24 48 -52 19 -29 66 -92 105
-140 40 -48 72 -89 72 -92 0 -3 -46 -5 -102 -4 -165 3 -242 -33 -258 -120 -4
-25 -4 -42 2 -42 5 0 30 18 56 39 79 66 139 91 236 99 65 6 90 5 97 -5 16 -19
1 -33 -35 -33 -18 0 -59 -9 -92 -20 -32 -11 -66 -20 -75 -20 -20 0 -99 -68
-99 -84 0 -7 -14 -30 -30 -51 -34 -42 -32 -59 3 -29 12 11 31 26 41 34 19 15
19 14 3 -17 -32 -60 -19 -67 28 -15 42 46 129 101 141 89 3 -3 -2 -20 -11 -38
-23 -43 -26 -126 -5 -120 57 15 69 13 75 -12 4 -14 1 -35 -5 -47 -11 -21 -21
-22 -62 -5 -33 13 -21 -41 18 -85 116 -129 309 -29 308 160 -1 77 -23 127 -74
165 -31 24 -32 26 -10 21 14 -3 43 -8 65 -11 85 -14 180 -84 191 -141 5 -29 0
-48 -30 -104 -20 -38 -36 -72 -36 -74 0 -20 40 21 106 107 l77 102 -6 -358 -7
-358 -35 -70 c-42 -84 -95 -169 -142 -227 -48 -58 -178 -166 -298 -246 -102
-68 -460 -251 -595 -305 -92 -37 -99 -34 -237 76 -54 44 -161 126 -238 183
-202 150 -277 213 -329 280 -61 78 -118 202 -145 315 -11 50 -43 187 -71 305
-28 118 -57 239 -66 269 -23 77 -72 271 -69 271 1 0 16 -5 33 -11 25 -9 41
-29 83 -107 53 -101 97 -167 106 -158 3 2 -6 24 -20 48 -26 44 -47 126 -47
179 0 69 138 137 250 123 72 -9 80 -15 39 -28 -27 -9 -40 -23 -61 -65 -17 -34
-28 -71 -28 -96 0 -40 1 -41 30 -37 24 3 31 0 39 -19 12 -34 3 -49 -31 -49
-28 0 -30 -2 -23 -27 7 -33 50 -88 89 -117 35 -26 108 -26 144 1 48 36 67 89
66 184 0 72 -4 92 -23 120 -22 33 -21 33 13 -5 20 -21 45 -62 55 -90 19 -49
20 -49 20 -18 1 30 3 32 21 22 25 -13 25 -9 0 32 -11 18 -20 39 -20 47 0 25
-79 108 -139 145 -90 55 -160 76 -255 76 -60 0 -88 4 -105 17 -23 16 -24 16
-18 -8 6 -25 10 -22 -132 -105 -20 -12 -48 -24 -64 -28 -23 -6 -29 -3 -38 21
-21 57 -39 167 -39 244 0 51 -4 78 -10 74 -14 -8 -13 4 6 87 10 44 13 73 7 77
-14 8 27 169 71 279 79 200 206 379 326 458 22 15 40 31 40 35 0 19 232 149
266 149 12 0 27 6 34 14 6 8 24 17 38 19 48 7 82 7 82 0z m-671 -185 l42 -128
-22 -30 c-13 -16 -26 -30 -30 -30 -14 0 -38 50 -63 131 -41 138 -42 151 -10
189 25 29 29 31 35 14 3 -11 25 -76 48 -146z m2841 17 c31 -78 31 -80 13 -112
-10 -18 -22 -32 -27 -30 -5 2 -20 34 -33 72 -26 78 -38 96 -29 45 5 -32 4 -31
-18 15 -13 28 -27 64 -30 80 l-6 30 17 -30 18 -30 3 25 c1 14 5 36 8 50 l6 25
24 -30 c13 -16 38 -66 54 -110z m-2189 -29 c-6 -36 -16 -142 -21 -237 -5 -95
-13 -176 -18 -181 -6 -6 -12 31 -16 94 -7 93 -4 117 23 246 17 78 31 146 31
149 0 3 3 4 6 0 3 -3 1 -35 -5 -71z m2026 -26 c8 -25 12 -54 11 -65 -3 -16 -9
-10 -31 26 -31 53 -36 92 -10 87 11 -2 22 -21 30 -48z m-67 -11 c0 -20 -15
-26 -25 -9 -9 15 3 43 15 35 5 -3 10 -15 10 -26z m-1853 -36 c0 -32 5 -94 11
-137 l11 -80 -36 -78 c-20 -43 -41 -77 -47 -75 -7 3 -11 42 -10 113 0 89 5
126 28 204 40 133 42 136 43 53z m1393 -20 c12 -20 22 -55 23 -77 2 -35 -1
-41 -18 -41 -22 0 -43 55 -44 118 -1 47 11 47 39 0z m129 -16 c12 -24 21 -51
21 -60 0 -17 -26 -35 -35 -25 -9 8 -22 128 -14 128 4 0 17 -19 28 -43z m-407
-96 c2 -13 -3 -26 -9 -28 -15 -6 -36 44 -28 65 5 14 8 14 20 1 8 -8 16 -25 17
-38z m-444 -17 c14 -81 -2 -123 -28 -75 -11 22 -14 114 -3 124 15 15 21 4 31
-49z m354 11 c9 -20 9 -28 -1 -38 -15 -15 -31 6 -31 41 0 30 18 28 32 -3z
m-891 -88 c-6 -15 -16 -27 -22 -27 -15 0 -6 75 13 97 12 15 13 13 16 -13 2
-17 -2 -42 -7 -57z m119 40 c0 -7 -7 -22 -15 -33 -12 -16 -14 -17 -15 -2 0 23
11 48 21 48 5 0 9 -6 9 -13z m70 -17 c0 -5 -4 -10 -10 -10 -5 0 -10 5 -10 10
0 6 5 10 10 10 6 0 10 -4 10 -10z m107 -142 c-3 -8 -6 -5 -6 6 -1 11 2 17 5
13 3 -3 4 -12 1 -19z m393 -378 c26 -36 25 -40 -12 -33 -28 5 -30 11 -43 128
l-5 50 18 -57 c11 -31 29 -70 42 -88z m95 -132 c25 -38 77 -109 116 -157 53
-68 69 -96 69 -121 0 -29 -2 -32 -22 -26 -13 3 -58 9 -101 13 l-78 6 -23 46
c-36 73 -94 300 -80 314 2 2 19 1 38 -1 30 -3 40 -13 81 -74z m284 -275 c32
-32 77 -73 100 -92 80 -65 41 -83 -55 -25 -32 20 -74 43 -93 51 -31 13 -33 17
-27 51 3 20 6 45 6 55 0 9 2 17 5 17 2 0 31 -26 64 -57z m-2178 -85 c12 -24
39 -68 60 -98 21 -30 41 -70 45 -88 6 -28 4 -32 -15 -32 -16 0 -27 11 -40 43
-21 48 -81 135 -94 136 -4 1 -15 -15 -23 -35 -20 -47 -27 -38 -18 24 6 47 32
92 54 92 5 0 19 -19 31 -42z m2833 -120 c7 -13 17 -43 20 -68 l7 -45 -19 35
c-11 20 -28 36 -41 38 -21 3 -26 17 -15 46 9 23 31 20 48 -6z m-2905 -55 c15
-78 14 -123 -3 -123 -15 0 -28 32 -46 113 -11 53 -8 67 19 67 14 0 21 -13 30
-57z m88 -40 c-3 -10 -5 -4 -5 12 0 17 2 24 5 18 2 -7 2 -21 0 -30z m-48 -57
c-9 -8 -10 -7 -5 7 3 10 7 26 7 35 1 9 4 6 6 -7 3 -13 -1 -28 -8 -35z m725 46
c3 -5 -1 -9 -9 -9 -8 0 -15 4 -15 9 0 4 4 8 9 8 6 0 12 -4 15 -8z m1266 -27
c0 -8 -5 -17 -11 -21 -16 -9 -30 18 -17 33 12 15 28 8 28 -12z m-1846 -26 c-3
-5 -10 -7 -15 -3 -5 3 -7 10 -3 15 3 5 10 7 15 3 5 -3 7 -10 3 -15z m-86 -52
c13 -29 29 -75 37 -102 14 -44 13 -50 -2 -67 -9 -10 -22 -18 -30 -18 -15 0
-52 75 -74 148 -11 39 -11 43 12 66 13 13 26 24 29 25 3 0 15 -23 28 -52z
m2872 -140 c0 -21 -79 -167 -113 -209 l-22 -27 3 61 c4 56 8 67 49 117 25 31
50 66 56 79 11 25 27 13 27 -21z m-2793 -69 c14 -30 92 -118 105 -118 5 0 7
10 3 23 -5 17 -4 19 4 6 12 -19 43 -190 36 -197 -16 -17 -160 174 -195 257
-11 28 -11 34 1 42 23 14 35 11 46 -13z m33 1 c0 -6 -4 -7 -10 -4 -5 3 -10 11
-10 16 0 6 5 7 10 4 6 -3 10 -11 10 -16z"/>
<path d="M1040 3291 c8 -6 24 -11 35 -11 48 0 149 -62 217 -132 38 -39 71 -68
73 -66 5 4 -6 40 -34 115 -15 41 -19 44 -92 68 -79 27 -227 46 -199 26z"/>
<path d="M860 2745 c0 -10 10 -15 28 -15 26 1 26 1 8 15 -25 19 -36 19 -36 0z"/>
<path d="M920 2724 c0 -12 36 -40 73 -56 25 -12 64 -18 107 -18 56 0 70 4 86
21 l19 22 -30 -9 c-57 -17 -137 -9 -197 19 -32 14 -58 24 -58 21z"/>
<path d="M2542 2689 c-12 -11 -19 -25 -16 -31 4 -7 11 -3 17 8 6 11 18 24 26
31 9 7 11 13 5 13 -5 0 -20 -9 -32 -21z"/>
<path d="M1446 2626 c-40 -37 -47 -76 -21 -114 11 -15 13 -27 7 -39 -12 -22 3
-67 18 -58 6 4 8 21 5 39 -6 30 -3 34 47 67 64 41 74 74 34 114 -33 33 -48 32
-90 -9z"/>
<path d="M2190 2639 c0 -16 5 -20 20 -16 10 3 20 1 22 -3 3 -8 93 -14 156 -12
60 3 33 22 -31 22 -35 0 -86 7 -113 15 -27 8 -50 15 -51 15 -2 0 -3 -10 -3
-21z"/>
<path d="M2447 2649 c-19 -11 -14 -29 8 -29 14 0 28 27 17 34 -4 2 -15 0 -25
-5z"/>
<path d="M2181 2127 c-13 -35 -37 -50 -67 -43 -22 6 -25 4 -19 -13 5 -16 -1
-23 -31 -36 -20 -8 -45 -15 -56 -15 -13 0 -25 -13 -36 -40 -20 -47 -28 -50
-35 -12 l-6 27 -188 1 c-195 0 -264 10 -336 46 -21 10 -40 25 -44 33 -6 18
-23 20 -22 3 0 -17 106 -100 113 -89 3 5 26 4 53 -1 27 -5 130 -10 230 -10
l182 -2 6 -25 c14 -54 27 -55 54 -5 21 38 35 50 78 68 81 33 143 81 143 111 0
31 -8 32 -19 2z"/>
</g>
</svg>
